<svg width="150" height="30" viewBox="0 0 150 30" fill="none" xmlns="http://www.w3.org/2000/svg">
<path d="M141 24V15H150V24H141Z" fill="#FF6314"/>
<path d="M128.524 23.768C123.66 23.768 120.556 21.4 120.428 17.944L124.684 17.624C124.812 19.16 126.156 20.152 128.492 20.152C130.348 20.152 131.436 19.512 131.436 18.52C131.436 15.544 121.228 18.264 121.228 11.832C121.228 8.50399 123.948 6.74399 128.012 6.74399C132.364 6.74399 135.052 8.79199 135.18 11.832L130.892 12.152C130.764 11 129.836 10.36 128.076 10.36C126.476 10.36 125.644 10.904 125.644 11.672C125.644 14.36 135.852 11.928 135.852 18.36C135.852 21.72 133.068 23.768 128.524 23.768Z" fill="white"/>
<path d="M112.276 23.768C109.78 23.768 107.86 22.488 106.868 20.312V29.656H102.548V7.25599H106.868V10.2C107.86 8.02399 109.78 6.74399 112.276 6.74399C116.372 6.74399 119.252 10.264 119.252 15.256C119.252 20.248 116.372 23.768 112.276 23.768ZM110.868 20.152C113.236 20.152 114.836 18.2 114.836 15.256C114.836 12.312 113.236 10.36 110.868 10.36C108.5 10.36 106.9 12.312 106.9 15.256C106.9 18.2 108.5 20.152 110.868 20.152Z" fill="white"/>
<path d="M93.4633 23.768C90.9673 23.768 89.0474 22.488 88.0554 20.312V29.656H83.7354V7.25599H88.0554V10.2C89.0474 8.02399 90.9673 6.74399 93.4633 6.74399C97.5593 6.74399 100.439 10.264 100.439 15.256C100.439 20.248 97.5593 23.768 93.4633 23.768ZM92.0554 20.152C94.4234 20.152 96.0234 18.2 96.0234 15.256C96.0234 12.312 94.4234 10.36 92.0554 10.36C89.6874 10.36 88.0873 12.312 88.0873 15.256C88.0873 18.2 89.6874 20.152 92.0554 20.152Z" fill="white"/>
<path d="M71.4698 23.768C68.2378 23.768 65.9658 21.752 65.9658 18.904C65.9658 15.992 68.2698 14.296 72.8458 13.752C76.1738 13.336 76.7178 13.08 76.6538 11.928C76.5898 10.904 75.7258 10.36 74.1898 10.36C72.0778 10.36 70.7018 11.288 70.7018 12.632L66.4138 12.312C66.4138 9.01599 69.4218 6.74399 73.7738 6.74399C78.1898 6.74399 81.0378 9.11199 81.0378 12.824V23.256H76.7178V20.6C75.7898 22.584 73.9338 23.768 71.4698 23.768ZM72.6218 20.152C75.0218 20.152 76.5578 18.136 76.7178 15C76.0458 15.8 74.7338 16.344 73.1338 16.536C71.2138 16.792 70.3818 17.432 70.3818 18.488C70.3818 19.544 71.3098 20.152 72.6218 20.152Z" fill="white"/>
<path d="M52.066 29.656L54.882 23.256L48.354 7.25598H52.77L57.186 18.072L61.954 7.25598H66.434L56.546 29.656H52.066Z" fill="white"/>
<path d="M42.4229 23.256V0.53598H46.7429V23.256H42.4229Z" fill="white"/>
<path d="M35.1955 13.88C35.1955 11.64 34.2355 10.36 32.5715 10.36C30.4275 10.36 29.0195 12.408 29.0195 15.48V23.256H24.6995V7.25599H29.0195V9.97599C30.0115 7.95999 31.8675 6.74399 34.2035 6.74399C37.5955 6.74399 39.5155 9.27199 39.5155 13.688V23.256H35.1955V13.88Z" fill="white"/>
<path d="M11.264 23.768C4.64 23.768 0 18.936 0 12.056C0 5.17599 4.64 0.343994 11.264 0.343994C17.888 0.343994 22.528 5.17599 22.528 12.056C22.528 18.936 17.888 23.768 11.264 23.768ZM11.264 20.152C15.328 20.152 18.112 16.888 18.112 12.056C18.112 7.22399 15.328 3.95999 11.264 3.95999C7.2 3.95999 4.416 7.22399 4.416 12.056C4.416 16.888 7.2 20.152 11.264 20.152Z" fill="white"/>
</svg>
